<?xml version="1.0" encoding="UTF-8" standalone="no"?>
<svg
   xmlns:dc="http://purl.org/dc/elements/1.1/"
   xmlns:cc="http://creativecommons.org/ns#"
   xmlns:rdf="http://www.w3.org/1999/02/22-rdf-syntax-ns#"
   xmlns:svg="http://www.w3.org/2000/svg"
   xmlns="http://www.w3.org/2000/svg"
   xmlns:sodipodi="http://sodipodi.sourceforge.net/DTD/sodipodi-0.dtd"
   xmlns:inkscape="http://www.inkscape.org/namespaces/inkscape"
   version="1.1"
   width="20"
   height="22"
   viewBox="0 0 20 22"
   id="svg4"
   sodipodi:docname="calendar-clock.svg"
   inkscape:version="0.92.2 (5c3e80d, 2017-08-06)">
  <metadata
     id="metadata10">
    <rdf:RDF>
      <cc:Work
         rdf:about="">
        <dc:format>image/svg+xml</dc:format>
        <dc:type
           rdf:resource="http://purl.org/dc/dcmitype/StillImage" />
      </cc:Work>
    </rdf:RDF>
  </metadata>
  <defs
     id="defs8" />
  <sodipodi:namedview
     pagecolor="#ffffff"
     bordercolor="#666666"
     borderopacity="1"
     objecttolerance="10"
     gridtolerance="10"
     guidetolerance="10"
     inkscape:pageopacity="0"
     inkscape:pageshadow="2"
     inkscape:window-width="1366"
     inkscape:window-height="705"
     id="namedview6"
     showgrid="false"
     inkscape:zoom="9.8333333"
     inkscape:cx="9"
     inkscape:cy="11"
     inkscape:window-x="-8"
     inkscape:window-y="-8"
     inkscape:window-maximized="1"
     inkscape:current-layer="svg4" />
  <path
     d="m 12,12 h 1.5 v 2.82 l 2.44,1.41 -0.75,1.3 L 12,15.69 V 12 M 16,7 H 2 V 18 H 6.67 C 6.24,17.09 6,16.07 6,15 a 7,7 0 0 1 7,-7 c 1.07,0 2.09,0.24 3,0.67 V 7 M 2,20 C 0.89,20 0,19.1 0,18 V 4 C 0,2.89 0.89,2 2,2 H 3 V 0 h 2 v 2 h 8 V 0 h 2 v 2 h 1 a 2,2 0 0 1 2,2 v 6.1 c 1.24,1.26 2,2.99 2,4.9 a 7,7 0 0 1 -7,7 C 11.09,22 9.36,21.24 8.1,20 H 2 M 13,10.15 A 4.85,4.85 0 0 0 8.15,15 c 0,2.68 2.17,4.85 4.85,4.85 A 4.85,4.85 0 0 0 17.85,15 c 0,-2.68 -2.17,-4.85 -4.85,-4.85 z"
     id="path2"
     inkscape:connector-curvature="0" />
</svg>
