<?xml version="1.0"?><svg xmlns="http://www.w3.org/2000/svg" xmlns:xlink="http://www.w3.org/1999/xlink"><symbol viewBox="0 0 26 26" id="rowing-machine" xmlns="http://www.w3.org/2000/svg"><path style="text-indent:0;text-align:start;line-height:normal;text-transform:none;block-progression:tb;-inkscape-font-specification:Bitstream Vera Sans" d="M6 5a2 2 0 1 0 0 4 2 2 0 0 0 0-4zM3.687 9a1.415 1.415 0 0 0-1.093.906l-2.5 6.188c-.4 1 .093 2.194 1.093 2.593l.313.125c.061.025.125.014.188.032a1.25 1.25 0 0 0 .125.031c.022.005.04.027.062.031a1.25 1.25 0 0 0 .188.032 1.25 1.25 0 0 0 .468 0l4.625-.47L9.25 20h-3l-1.813-.906L4.25 19H0v2h3.75l1.813.906.187.094h14.875l.281-.563 2.75-5.53C24.984 15.598 26 14.414 26 13c0-1.645-1.355-3-3-3-1.292 0-2.394.844-2.813 2h-6.375v1H20c0 1.126.634 2.112 1.563 2.625L19.375 20h-7.031a1.253 1.253 0 0 0-.5-1.219l-3.625-2.593a1.25 1.25 0 0 0-.688-.25 1.25 1.25 0 0 0-.156.03H7.25l-3.844-.28 1.781-.594 1.407-3.438 5.156 1.313a1 1 0 1 0 .5-1.938l-7.906-2A1 1 0 0 0 4.28 9c-.079-.015-.14.004-.218 0A1 1 0 0 0 4 9c-.1 0-.215-.017-.313 0zM23 12c.564 0 1 .436 1 1 0 .564-.436 1-1 1-.564 0-1-.436-1-1 0-.564.436-1 1-1z"/></symbol></svg>