<?xml version="1.0" encoding="UTF-8" standalone="no"?>
<svg
   xmlns:dc="http://purl.org/dc/elements/1.1/"
   xmlns:cc="http://creativecommons.org/ns#"
   xmlns:rdf="http://www.w3.org/1999/02/22-rdf-syntax-ns#"
   xmlns:svg="http://www.w3.org/2000/svg"
   xmlns="http://www.w3.org/2000/svg"
   xmlns:sodipodi="http://sodipodi.sourceforge.net/DTD/sodipodi-0.dtd"
   xmlns:inkscape="http://www.inkscape.org/namespaces/inkscape"
   viewBox="0 0 26.045208 17"
   enable-background="new 0 0 26 26"
   version="1.1"
   id="svg898"
   sodipodi:docname="rowing-machine.svg"
   width="26.045208"
   height="17"
   inkscape:version="0.92.2 (5c3e80d, 2017-08-06)">
  <metadata
     id="metadata904">
    <rdf:RDF>
      <cc:Work
         rdf:about="">
        <dc:format>image/svg+xml</dc:format>
        <dc:type
           rdf:resource="http://purl.org/dc/dcmitype/StillImage" />
      </cc:Work>
    </rdf:RDF>
  </metadata>
  <defs
     id="defs902" />
  <sodipodi:namedview
     pagecolor="#ffffff"
     bordercolor="#666666"
     borderopacity="1"
     objecttolerance="10"
     gridtolerance="10"
     guidetolerance="10"
     inkscape:pageopacity="0"
     inkscape:pageshadow="2"
     inkscape:window-width="1366"
     inkscape:window-height="705"
     id="namedview900"
     showgrid="false"
     inkscape:zoom="20.615385"
     inkscape:cx="13.045209"
     inkscape:cy="9"
     inkscape:window-x="-8"
     inkscape:window-y="-8"
     inkscape:window-maximized="1"
     inkscape:current-layer="svg898" />
  <path
     style="line-height:normal;-inkscape-font-specification:'Bitstream Vera Sans';text-indent:0;text-align:start;text-transform:none"
     d="m 6.0452086,0 c -1.1045695,0 -2,0.8954305 -2,2 0,1.1045695 0.8954305,2 2,2 1.1045695,0 2,-0.8954305 2,-2 0,-1.1045695 -0.8954305,-2 -2,-2 z m -2.3125,4 c -0.4853516,0.084961 -0.90625,0.40625 -1.09375,0.90625 l -2.50000003,6.1875 c -0.4,1 0.09375,2.19375 1.09375003,2.59375 l 0.3125,0.125 c 0.061274,0.02451 0.1249537,0.01341 0.1875,0.03125 a 1.250125,1.250125 0 0 0 0.125,0.03125 c 0.022733,0.0048 0.039683,0.02725 0.0625,0.03125 a 1.250125,1.250125 0 0 0 0.1875,0.03125 1.250125,1.250125 0 0 0 0.46875,0 l 4.625,-0.46875 L 9.2952086,15 h -3 L 4.4827086,14.09375 4.2952086,14 h -0.25 -4.00000003 v 2 H 3.7952086 l 1.8125,0.90625 0.1875,0.09375 h 0.25 14.0000004 0.625 l 0.28125,-0.5625 2.75,-5.53125 C 25.029337,10.598635 26.045209,9.415394 26.045209,8 c 0,-1.64501 -1.35499,-3 -3,-3 -1.292018,0 -2.394282,0.844255 -2.8125,2 h -6.375 v 1 h 6.1875 c 0,1.125993 0.63434,2.112309 1.5625,2.625 L 19.420209,15 h -7.03125 a 1.2533159,1.2533159 0 0 0 -0.5,-1.21875 L 8.2639586,11.1875 a 1.250125,1.250125 0 0 0 -0.6875,-0.25 1.250125,1.250125 0 0 0 -0.15625,0.03125 h -0.125 l -3.84375,-0.28125 1.78125,-0.59375 1.40625,-3.4375 5.1562504,1.3125 a 1.0004882,1.0004882 0 1 0 0.5,-1.9375 l -7.9062504,-2 A 1.0001,1.0001 0 0 0 4.3264586,4 c -0.079145,-0.014735 -0.140012,0.00372 -0.21875,0 a 1.0001,1.0001 0 0 0 -0.0625,0 C 3.9444274,3.9992187 3.8297789,3.9830078 3.7327086,4 Z M 23.045209,7 c 0.564128,0 1,0.435872 1,1 0,0.564128 -0.435872,1 -1,1 -0.564128,0 -1,-0.435872 -1,-1 0,-0.564128 0.435872,-1 1,-1 z"
     id="path896"
     inkscape:connector-curvature="0" />
  <path
     inkscape:connector-curvature="0"
     id="path4595"
     d="m 6.0452086,0 c -1.1045695,0 -2,0.8954305 -2,2 0,1.1045695 0.8954305,2 2,2 1.1045695,0 2,-0.8954305 2,-2 0,-1.1045695 -0.8954305,-2 -2,-2 z m -2.3125,4 c -0.4853516,0.084961 -0.90625,0.40625 -1.09375,0.90625 l -2.50000003,6.1875 c -0.4,1 0.09375,2.19375 1.09375003,2.59375 l 0.3125,0.125 c 0.061274,0.02451 0.1249537,0.01341 0.1875,0.03125 a 1.250125,1.250125 0 0 0 0.125,0.03125 c 0.022733,0.0048 0.039683,0.02725 0.0625,0.03125 a 1.250125,1.250125 0 0 0 0.1875,0.03125 1.250125,1.250125 0 0 0 0.46875,0 l 4.625,-0.46875 L 9.2952086,15 h -3 L 4.4827086,14.09375 4.2952086,14 h -0.25 -4.00000003 v 2 H 3.7952086 l 1.8125,0.90625 0.1875,0.09375 h 0.25 14.0000004 0.625 l 0.28125,-0.5625 2.75,-5.53125 C 25.029337,10.598635 26.045209,9.415394 26.045209,8 c 0,-1.64501 -1.35499,-3 -3,-3 -1.292018,0 -2.394282,0.844255 -2.8125,2 h -6.375 v 1 h 6.1875 c 0,1.125993 0.63434,2.112309 1.5625,2.625 L 19.420209,15 h -7.03125 a 1.2533159,1.2533159 0 0 0 -0.5,-1.21875 L 8.2639586,11.1875 a 1.250125,1.250125 0 0 0 -0.6875,-0.25 1.250125,1.250125 0 0 0 -0.15625,0.03125 h -0.125 l -3.84375,-0.28125 1.78125,-0.59375 1.40625,-3.4375 5.1562504,1.3125 a 1.0004882,1.0004882 0 1 0 0.5,-1.9375 l -7.9062504,-2 A 1.0001,1.0001 0 0 0 4.3264586,4 c -0.079145,-0.014735 -0.140012,0.00372 -0.21875,0 a 1.0001,1.0001 0 0 0 -0.0625,0 C 3.9444274,3.9992187 3.8297789,3.9830078 3.7327086,4 Z M 23.045209,7 c 0.564128,0 1,0.435872 1,1 0,0.564128 -0.435872,1 -1,1 -0.564128,0 -1,-0.435872 -1,-1 0,-0.564128 0.435872,-1 1,-1 z"
     style="line-height:normal;-inkscape-font-specification:'Bitstream Vera Sans';text-indent:0;text-align:start;text-transform:none" />
</svg>
