<?xml version="1.0" encoding="utf-8"?><!DOCTYPE svg  PUBLIC '-//W3C//DTD SVG 1.1//EN'  'http://www.w3.org/Graphics/SVG/1.1/DTD/svg11.dtd'><svg xmlns="http://www.w3.org/2000/svg" xmlns:xlink="http://www.w3.org/1999/xlink"><symbol viewBox="0 0 32 32" id="accessibility" xmlns="http://www.w3.org/2000/svg"><title>accessibility</title><path d="M13 3a3 3 0 1 1 6 0 3 3 0 0 1-6 0z"/><path d="M20 10l10.3-4.443-.743-1.857L17 8h-2L2.443 3.7 1.7 5.557 12 10v8L7.898 31.268l1.87.709L15.572 19h.857l5.804 12.977 1.87-.709L20.001 18z"/></symbol><symbol viewBox="0 0 1372.201 1372.684" id="arduino" xmlns="http://www.w3.org/2000/svg"><path fill="#00979D" stroke="#81C9CB" stroke-width=".932" stroke-miterlimit="10" d="M1371.701 686.024c0 378.658-306.972 685.605-685.549 685.605C307.451 1371.629.5 1064.682.5 686.024.5 307.455 307.451.483 686.152.483c378.594.001 685.549 306.972 685.549 685.541z"/><linearGradient id="ba" gradientUnits="userSpaceOnUse" x1="-16.3" y1="16.071" x2="1354.901" y2="16.071" gradientTransform="matrix(1 0 0 -1 16.8 702.696)"><stop offset=".117" stop-color="#fff" stop-opacity="0"/><stop offset=".252" stop-color="#c0d1d3" stop-opacity=".153"/><stop offset=".387" stop-color="#91b3b7" stop-opacity=".306"/><stop offset=".52" stop-color="#6d9fa3" stop-opacity=".457"/><stop offset=".65" stop-color="#4d9195" stop-opacity=".604"/><stop offset=".776" stop-color="#30888b" stop-opacity=".746"/><stop offset=".895" stop-color="#148386" stop-opacity=".881"/><stop offset="1" stop-color="#008184"/></linearGradient><linearGradient id="bb" gradientUnits="userSpaceOnUse" x1="-16.8" y1="16.071" x2="1355.401" y2="16.071" gradientTransform="matrix(1 0 0 -1 16.8 702.696)"><stop offset="0" stop-color="#fff" stop-opacity="0"/><stop offset=".153" stop-color="#c0d1d3" stop-opacity=".153"/><stop offset=".306" stop-color="#91b3b7" stop-opacity=".306"/><stop offset=".457" stop-color="#6d9fa3" stop-opacity=".457"/><stop offset=".604" stop-color="#4d9195" stop-opacity=".604"/><stop offset=".746" stop-color="#30888b" stop-opacity=".746"/><stop offset=".881" stop-color="#148386" stop-opacity=".881"/><stop offset="1" stop-color="#008184"/></linearGradient><path opacity=".5" fill="url(#ba)" stroke="url(#bb)" stroke-miterlimit="10" d="M1371.701 686.595c0 378.65-306.972 685.606-685.549 685.606C307.451 1372.201.5 1065.23.5 686.595.5 308.019 307.451 1.048 686.152 1.048c378.594.016 685.549 306.97 685.549 685.547z"/><g fill="#FFF"><path d="M947.959 931.196c-12.909 0-26.127-.929-39.127-2.864-108.978-15.554-181.848-93.822-222.665-153.989-40.946 60.166-113.811 138.512-222.74 154.045a275.864 275.864 0 0 1-39.133 2.785c-67.753 0-131.358-25.217-179.201-71.003-48.299-46.165-74.951-108.114-74.951-174.171 0-66.14 26.651-128.004 75.021-174.253 47.797-45.793 111.449-70.936 179.231-70.936 12.918 0 26.067.928 39.023 2.783 108.932 15.535 181.794 93.813 222.743 153.99 40.825-60.177 113.689-138.432 222.658-153.99 13-1.863 26.148-2.783 39.066-2.783 67.753 0 131.401 25.208 179.197 70.936 48.345 46.249 74.937 108.113 74.937 174.253 0 66.057-26.524 128.006-74.868 174.171-47.881 45.785-111.434 71.026-179.191 71.026M734.42 686.024c21.283 40.534 84.067 141.676 186.692 156.375 8.984 1.236 18.028 1.923 26.839 1.923 92.185 0 167.225-71.002 167.225-158.322s-75.023-158.321-167.291-158.321c-8.812 0-17.853.629-26.753 1.921-102.644 14.664-165.428 115.806-186.712 156.424M424.393 527.702c-92.308 0-167.36 70.998-167.36 158.321 0 87.305 75.021 158.322 167.245 158.322 8.852 0 17.897-.688 26.879-1.922 102.629-14.697 165.394-115.783 186.689-156.375-21.237-40.535-84.061-141.761-186.689-156.376-8.877-1.341-17.945-1.97-26.764-1.97"/><path d="M354.37 662.051h152.625v49.181H354.37zm662.114 0h-51.671v-51.747h-49.348v51.747h-51.648v49.181h51.648v51.737h49.348v-51.737h51.671z"/></g></symbol><symbol viewBox="0 0 32 32" id="calendar" xmlns="http://www.w3.org/2000/svg"><title>calendar</title><path d="M10 12h4v4h-4zm6 0h4v4h-4zm6 0h4v4h-4zM4 24h4v4H4zm6 0h4v4h-4zm6 0h4v4h-4zm-6-6h4v4h-4zm6 0h4v4h-4zm6 0h4v4h-4zM4 18h4v4H4zM26 0v2h-4V0H8v2H4V0H0v32h30V0h-4zm2 30H2V8h26v22z"/></symbol><symbol viewBox="0 0 20 22" id="calendar-clock" xmlns="http://www.w3.org/2000/svg"><path d="M12 12h1.5v2.82l2.44 1.41-.75 1.3L12 15.69V12m4-5H2v11h4.67c-.43-.91-.67-1.93-.67-3a7 7 0 0 1 7-7c1.07 0 2.09.24 3 .67V7M2 20a2 2 0 0 1-2-2V4c0-1.11.89-2 2-2h1V0h2v2h8V0h2v2h1a2 2 0 0 1 2 2v6.1c1.24 1.26 2 2.99 2 4.9a7 7 0 0 1-7 7c-1.91 0-3.64-.76-4.9-2H2m11-9.85A4.85 4.85 0 0 0 8.15 15c0 2.68 2.17 4.85 4.85 4.85A4.85 4.85 0 0 0 17.85 15c0-2.68-2.17-4.85-4.85-4.85z"/></symbol><symbol viewBox="0 0 32 32" id="clock" xmlns="http://www.w3.org/2000/svg"><title>clock</title><path d="M20.586 23.414L14 16.828V8h4v7.172l5.414 5.414zM16 0C7.163 0 0 7.163 0 16s7.163 16 16 16 16-7.163 16-16S24.837 0 16 0zm0 28C9.373 28 4 22.627 4 16S9.373 4 16 4s12 5.373 12 12-5.373 12-12 12z"/></symbol><symbol viewBox="0 0 1696.162 1696.143" id="edit" xmlns="http://www.w3.org/2000/svg"><path d="M1648.016 305.367L1390.795 48.149C1359.747 17.098 1318.466 0 1274.555 0c-43.907 0-85.188 17.098-116.236 48.148L81.585 1124.866a66.06 66.06 0 0 0-18.75 37.833L.601 1621.186a66.067 66.067 0 0 0 18.753 55.605 66.068 66.068 0 0 0 55.605 18.751l458.488-62.231a66.062 66.062 0 0 0 37.835-18.752L1648.016 537.844c31.049-31.048 48.146-72.33 48.146-116.237 0-43.911-17.098-85.192-48.146-116.24zM493.598 1505.366l-350.381 47.558 47.56-350.376L953.78 439.557l302.818 302.819-763 762.99zM1554.575 444.404l-204.536 204.533-302.821-302.818 204.535-204.532c8.22-8.218 17.814-9.446 22.802-9.446 4.988 0 14.582 1.228 22.803 9.446l257.221 257.218c8.217 8.217 9.443 17.812 9.443 22.799s-1.227 14.582-9.447 22.8z"/></symbol><symbol viewBox="0 0 32 32" id="fire" xmlns="http://www.w3.org/2000/svg"><title>fire</title><path d="M10.031 32c-2.133-4.438-.997-6.981.642-9.376 1.795-2.624 2.258-5.221 2.258-5.221s1.411 1.834.847 4.703c2.493-2.775 2.963-7.196 2.587-8.889C22 17.155 24.408 25.681 21.163 32c17.262-9.767 4.294-24.38 2.036-26.027.753 1.646.895 4.433-.625 5.785C20.001 1.999 13.637-.001 13.637-.001c.753 5.033-2.728 10.536-6.084 14.648-.118-2.007-.243-3.392-1.298-5.312-.237 3.646-3.023 6.617-3.777 10.27-1.022 4.946.765 8.568 7.555 12.394z"/></symbol><symbol viewBox="0 0 32 32" id="heart" xmlns="http://www.w3.org/2000/svg"><title>heart</title><path d="M23.6 2c-3.363 0-6.258 2.736-7.599 5.594C14.659 4.736 11.764 2 8.4 2 3.763 2 0 5.764 0 10.401c0 9.433 9.516 11.906 16.001 21.232C22.131 22.365 32 19.533 32 10.401 32 5.764 28.237 2 23.6 2z"/></symbol><symbol viewBox="0 0 34 32" id="history" xmlns="http://www.w3.org/2000/svg"><title>history</title><path d="M20 2c7.732 0 14 6.268 14 14s-6.268 14-14 14v-3c2.938 0 5.701-1.144 7.778-3.222S31 18.938 31 16c0-2.938-1.144-5.701-3.222-7.778S22.938 5 20 5a10.925 10.925 0 0 0-7.778 3.222A10.922 10.922 0 0 0 9.181 14H15l-7 8-7-8h5.143C7.114 7.216 12.947 2 20 2zm6 12v4h-8V8h4v6z"/></symbol><symbol viewBox="0 0 32 32" id="info" xmlns="http://www.w3.org/2000/svg"><title>info</title><path d="M14 9.5c0-.825.675-1.5 1.5-1.5h1c.825 0 1.5.675 1.5 1.5v1c0 .825-.675 1.5-1.5 1.5h-1c-.825 0-1.5-.675-1.5-1.5v-1zM20 24h-8v-2h2v-6h-2v-2h6v8h2z"/><path d="M16 0C7.163 0 0 7.163 0 16s7.163 16 16 16 16-7.163 16-16S24.837 0 16 0zm0 29C8.82 29 3 23.18 3 16S8.82 3 16 3s13 5.82 13 13-5.82 13-13 13z"/></symbol><symbol viewBox="0 0 590.969 159.025" id="node.js" xmlns="http://www.w3.org/2000/svg"><g transform="translate(-115.944 -501.421)" fill-rule="evenodd"><path d="M414.48 501.422c-.409.005-.823.102-1.189.317a2.403 2.403 0 0 0-1.189 2.06v60.643c0 .596-.277 1.129-.792 1.427-.517.3-1.147.3-1.665 0l-9.909-5.707a4.75 4.75 0 0 0-4.756 0l-39.557 22.83c-1.479.853-2.378 2.494-2.378 4.201v45.66c0 1.706.9 3.268 2.378 4.123l39.557 22.83a4.738 4.738 0 0 0 4.756 0l39.556-22.83a4.747 4.747 0 0 0 2.379-4.122V519.02a4.833 4.833 0 0 0-2.458-4.202L415.67 501.66c-.37-.206-.78-.242-1.19-.237zm-254.46 56.996c-.755.03-1.464.162-2.141.555l-39.557 22.83a4.737 4.737 0 0 0-2.378 4.122l.08 61.277c0 .852.439 1.643 1.188 2.06.735.44 1.646.44 2.378 0l23.465-13.475c1.486-.883 2.457-2.42 2.457-4.123v-28.616c0-1.707.898-3.274 2.378-4.123l9.989-5.786a4.684 4.684 0 0 1 2.378-.634c.815 0 1.653.203 2.378.634l9.988 5.786a4.733 4.733 0 0 1 2.378 4.123v28.616c0 1.704.981 3.25 2.458 4.123l23.464 13.476c.737.44 1.647.44 2.378 0a2.385 2.385 0 0 0 1.19-2.061l.078-61.277c0-1.718-.894-3.27-2.378-4.122l-39.556-22.83c-.67-.393-1.381-.524-2.14-.555h-.476zm355.452.555a4.729 4.729 0 0 0-2.378.634l-39.556 22.83a4.744 4.744 0 0 0-2.378 4.122v45.66c0 1.717.967 3.274 2.457 4.123l39.24 22.354c1.448.828 3.218.89 4.676.079l23.782-13.239c.754-.418 1.265-1.2 1.268-2.06a2.342 2.342 0 0 0-1.189-2.062l-39.794-22.83c-.745-.425-1.269-1.286-1.269-2.14v-14.27c0-.852.53-1.634 1.269-2.06l12.366-7.135a2.374 2.374 0 0 1 2.378 0l12.367 7.135a2.371 2.371 0 0 1 1.189 2.06v11.257c0 .855.45 1.635 1.189 2.061.742.427 1.64.43 2.378 0l23.702-13.793a4.765 4.765 0 0 0 2.378-4.122v-11.019a4.758 4.758 0 0 0-2.378-4.122l-39.319-22.83a4.714 4.714 0 0 0-2.378-.634zM397.2 593.059c.207 0 .45.051.634.158l13.556 7.848c.368.213.634.605.634 1.03v15.696c0 .426-.264.819-.634 1.03l-13.556 7.848c-.369.21-.82.21-1.189 0l-13.555-7.848c-.37-.213-.634-.604-.634-1.03v-15.696c0-.425.266-.816.634-1.03l13.555-7.847c.186-.107.349-.157.555-.157z" fill="#404137"/><path d="M633.983 557.863c-1.371 0-2.705.283-3.884.951l-37.337 21.562c-2.416 1.391-3.884 4.02-3.884 6.817v43.045c0 2.795 1.468 5.421 3.884 6.817l9.75 5.628c4.738 2.335 6.485 2.299 8.64 2.299 7.015 0 11.02-4.256 11.02-11.653v-42.49c0-.6-.52-1.03-1.11-1.03h-4.677c-.6 0-1.11.43-1.11 1.03v42.49c0 3.279-3.415 6.576-8.958 3.805l-10.146-5.945c-.359-.195-.635-.54-.635-.951v-43.045c0-.408.273-.823.635-1.03l37.257-21.483a1.1 1.1 0 0 1 1.11 0l37.258 21.483c.355.213.634.61.634 1.03v43.045c0 .411-.206.832-.555 1.03l-37.337 21.483c-.32.19-.761.19-1.11 0l-9.592-5.708a.997.997 0 0 0-.95 0c-2.649 1.501-3.146 1.676-5.63 2.537-.611.213-1.54.545.318 1.585l12.525 7.373a7.707 7.707 0 0 0 3.884 1.03c1.383 0 2.692-.34 3.884-1.03l37.337-21.483c2.416-1.405 3.885-4.022 3.885-6.817v-43.045c0-2.796-1.469-5.42-3.885-6.817l-37.337-21.562c-1.17-.668-2.512-.951-3.884-.951zm-355.136.872c-.824 0-1.64.208-2.378.634l-39.557 22.75c-1.478.853-2.378 2.497-2.378 4.202v45.66c0 1.708.9 3.269 2.378 4.123l39.557 22.83a4.735 4.735 0 0 0 4.756 0l39.557-22.83a4.747 4.747 0 0 0 2.378-4.122v-45.66c0-1.709-.9-3.35-2.378-4.202l-39.557-22.751a4.734 4.734 0 0 0-2.378-.634zm410.547.238v1.11h3.091v8.165h1.269v-8.165h3.17v-1.11h-7.53zm8.64 0v9.275h1.19v-5.47c0-.223.01-.568 0-1.03-.016-.47 0-.881 0-1.11v-.239l2.615 7.848h1.269l2.695-7.848c0 .5-.067.981-.08 1.427-.004.434 0 .76 0 .951v5.47h1.19v-9.275h-1.744l-2.695 7.848-2.616-7.848h-1.823zm-54.063 29.648c-10.632 0-16.964 4.524-16.964 12.049 0 8.163 6.285 10.405 16.489 11.415 12.207 1.195 13.159 2.987 13.159 5.39 0 4.168-3.323 5.946-11.178 5.946-9.867 0-12.036-2.464-12.762-7.372-.086-.527-.492-.952-1.03-.952h-4.836c-.596 0-1.11.513-1.11 1.11 0 6.283 3.418 13.714 19.738 13.714 11.815 0 18.63-4.637 18.63-12.763 0-8.055-5.505-10.217-16.965-11.732-11.58-1.532-12.683-2.282-12.683-4.994 0-2.238.935-5.232 9.512-5.232 7.661 0 10.493 1.652 11.653 6.818.102.485.53.872 1.03.872h4.836c.298 0 .587-.183.793-.397.203-.228.346-.485.317-.792-.748-8.896-6.68-13.08-18.629-13.08zm-128.578 10.86c-.158 0-.333 0-.476.079l-7.61 4.439a.925.925 0 0 0-.475.792v8.72c0 .329.19.63.475.793l7.61 4.36a.83.83 0 0 0 .872 0l7.61-4.36a.932.932 0 0 0 .476-.793v-8.72a.933.933 0 0 0-.476-.792l-7.61-4.44c-.14-.083-.238-.078-.396-.078z" fill="#83cd29"/></g></symbol><symbol viewBox="0 0 32 32" id="notification" xmlns="http://www.w3.org/2000/svg"><title>notification</title><path d="M16 3c-3.472 0-6.737 1.352-9.192 3.808S3 12.528 3 16c0 3.472 1.352 6.737 3.808 9.192S12.528 29 16 29c3.472 0 6.737-1.352 9.192-3.808S29 19.472 29 16c0-3.472-1.352-6.737-3.808-9.192S19.472 3 16 3zm0-3c8.837 0 16 7.163 16 16s-7.163 16-16 16S0 24.837 0 16 7.163 0 16 0zm-2 22h4v4h-4zm0-16h4v12h-4z"/></symbol><symbol viewBox="0 0 32 32" id="question" xmlns="http://www.w3.org/2000/svg"><title>question</title><path d="M14 22h4v4h-4zm8-14a2 2 0 0 1 2 2v6l-6 4h-4v-2l6-4v-2H10V8h12zm-6-5c-3.472 0-6.737 1.352-9.192 3.808S3 12.528 3 16c0 3.472 1.352 6.737 3.808 9.192S12.528 29 16 29c3.472 0 6.737-1.352 9.192-3.808S29 19.472 29 16c0-3.472-1.352-6.737-3.808-9.192S19.472 3 16 3zm0-3c8.837 0 16 7.163 16 16s-7.163 16-16 16S0 24.837 0 16 7.163 0 16 0z"/></symbol><symbol viewBox="0 0 26.045208 17" id="rowing-machine" xmlns="http://www.w3.org/2000/svg"><path style="line-height:normal;-inkscape-font-specification:'Bitstream Vera Sans';text-indent:0;text-align:start;text-transform:none" d="M6.045 0a2 2 0 1 0 0 4 2 2 0 0 0 0-4zM3.733 4a1.415 1.415 0 0 0-1.094.906l-2.5 6.188c-.4 1 .094 2.194 1.094 2.594l.312.124c.061.025.125.014.188.032a1.25 1.25 0 0 0 .125.031c.022.005.04.027.062.031a1.25 1.25 0 0 0 .188.031 1.25 1.25 0 0 0 .468 0l4.625-.468L9.295 15h-3l-1.812-.906L4.295 14H.045v2h3.75l1.813.906.187.094H20.67l.281-.563 2.75-5.53c1.328-.308 2.344-1.492 2.344-2.907 0-1.645-1.355-3-3-3-1.292 0-2.394.844-2.812 2h-6.375v1h6.187c0 1.126.635 2.112 1.563 2.625L19.42 15H12.39a1.253 1.253 0 0 0-.5-1.219l-3.625-2.594a1.25 1.25 0 0 0-.688-.25 1.25 1.25 0 0 0-.156.032h-.125l-3.844-.281 1.782-.594 1.406-3.438 5.156 1.313a1 1 0 1 0 .5-1.938l-7.906-2A1 1 0 0 0 4.326 4c-.079-.015-.14.004-.218 0a1 1 0 0 0-.063 0c-.1 0-.215-.017-.312 0zm19.312 3c.564 0 1 .436 1 1 0 .564-.436 1-1 1-.564 0-1-.436-1-1 0-.564.436-1 1-1z"/><path d="M6.045 0a2 2 0 1 0 0 4 2 2 0 0 0 0-4zM3.733 4a1.415 1.415 0 0 0-1.094.906l-2.5 6.188c-.4 1 .094 2.194 1.094 2.594l.312.124c.061.025.125.014.188.032a1.25 1.25 0 0 0 .125.031c.022.005.04.027.062.031a1.25 1.25 0 0 0 .188.031 1.25 1.25 0 0 0 .468 0l4.625-.468L9.295 15h-3l-1.812-.906L4.295 14H.045v2h3.75l1.813.906.187.094H20.67l.281-.563 2.75-5.53c1.328-.308 2.344-1.492 2.344-2.907 0-1.645-1.355-3-3-3-1.292 0-2.394.844-2.812 2h-6.375v1h6.187c0 1.126.635 2.112 1.563 2.625L19.42 15H12.39a1.253 1.253 0 0 0-.5-1.219l-3.625-2.594a1.25 1.25 0 0 0-.688-.25 1.25 1.25 0 0 0-.156.032h-.125l-3.844-.281 1.782-.594 1.406-3.438 5.156 1.313a1 1 0 1 0 .5-1.938l-7.906-2A1 1 0 0 0 4.326 4c-.079-.015-.14.004-.218 0a1 1 0 0 0-.063 0c-.1 0-.215-.017-.312 0zm19.312 3c.564 0 1 .436 1 1 0 .564-.436 1-1 1-.564 0-1-.436-1-1 0-.564.436-1 1-1z" style="line-height:normal;-inkscape-font-specification:'Bitstream Vera Sans';text-indent:0;text-align:start;text-transform:none"/></symbol></svg>